<?xml version="1.0" encoding="utf-8"?><svg xmlns="http://www.w3.org/2000/svg" xmlns:xlink="http://www.w3.org/1999/xlink"><symbol viewBox="0 0 48 48" id="adv-item1" xmlns="http://www.w3.org/2000/svg"><path d="M40.97 7.03A23.844 23.844 0 0024 0 23.967 23.967 0 008.086 6.037a.703.703 0 00.932 1.052A22.563 22.563 0 0124 1.406c12.458 0 22.594 10.136 22.594 22.594 0 12.458-10.136 22.594-22.594 22.594C11.542 46.594 1.406 36.458 1.406 24A22.562 22.562 0 017.09 9.018a.703.703 0 00-1.052-.932A23.967 23.967 0 000 24c0 6.41 2.496 12.438 7.03 16.97A23.844 23.844 0 0024 48c6.41 0 12.438-2.496 16.97-7.03A23.844 23.844 0 0048 24c0-6.41-2.496-12.438-7.03-16.97z"/><path d="M18.996 26.426a.6.6 0 00.6-.6V13.113a.6.6 0 00-.6-.6h-.26a.6.6 0 00-.205.036l-4.737 1.73a.6.6 0 00-.394.563v1.46a.6.6 0 00.802.565l2.532-.904v9.863a.6.6 0 00.6.6h1.662zm5.346-1.406v.001c.81 1.08 2.039 1.579 3.565 1.579 1.546 0 2.785-.512 3.587-1.622.77-1.065 1.106-2.616 1.106-4.548v-2.092c-.018-1.87-.365-3.368-1.14-4.388-.806-1.065-2.04-1.55-3.571-1.55-1.548 0-2.791.503-3.595 1.601-.771 1.055-1.108 2.59-1.108 4.5v2.154c.025 1.836.38 3.322 1.156 4.365zm4.907-9.441l.001.002c.3.472.497 1.32.497 2.65v2.63c-.018 1.283-.224 2.11-.53 2.579l-.001.003c-.268.419-.669.645-1.31.645-.64 0-1.059-.234-1.35-.692-.315-.512-.516-1.386-.516-2.714v-2.57c.012-1.247.208-2.065.508-2.543.258-.415.663-.648 1.34-.648.684 0 1.096.236 1.36.658zM19.73 31.132V38h-1.181v-5.897h-2.336l-.14 2.57c-.076 1.181-.275 2.026-.596 2.533-.318.508-.824.773-1.518.794h-.47v-1.035l.337-.025c.381-.042.654-.262.819-.66.165-.398.27-1.134.317-2.21l.127-2.938h4.64zm4.735 6.995c-.931 0-1.689-.305-2.273-.914-.584-.614-.876-1.433-.876-2.457v-.215c0-.682.13-1.289.388-1.822a3.05 3.05 0 011.091-1.257c.47-.305.978-.457 1.524-.457.893 0 1.587.294 2.082.882.495.588.743 1.43.743 2.527v.488H22.49c.017.677.213 1.225.59 1.644.38.415.863.623 1.447.623.415 0 .766-.085 1.054-.254.288-.17.54-.394.755-.673l.718.558c-.576.885-1.44 1.327-2.59 1.327zm-.146-6.157c-.474 0-.872.173-1.194.52-.321.343-.52.825-.596 1.447h3.44v-.088c-.034-.597-.194-1.058-.482-1.384-.288-.33-.677-.495-1.168-.495zm9.217.114H31.23V38h-1.174v-5.916h-2.26v-.952h5.739v.952z"/><circle cx="24" cy="24" r="20.25"/></symbol><symbol viewBox="0 0 50 50" id="adv-item2" xmlns="http://www.w3.org/2000/svg"><path d="M2.464 43.437h2.252V16.39a.684.684 0 01.288-.557l19.6-13.927a.684.684 0 01.792 0l19.6 13.927a.685.685 0 01.288.557v27.047h2.252a.684.684 0 01.684.684v3.414a.682.682 0 01-.684.683H2.464a.683.683 0 01-.684-.683V44.12a.684.684 0 01.684-.684zm41.453-26.694L25 3.303 6.083 16.742v26.694h2.883V20.67a.682.682 0 01.684-.684h30.702a.683.683 0 01.683.684v22.767h2.882V16.743zM15.459 43.437v-8.173a.684.684 0 01.683-.683h3.746v-8.175a.684.684 0 01.683-.683h8.858a.683.683 0 01.684.683v8.175h3.745a.683.683 0 01.684.683v8.173h5.124V21.354H10.334v22.083h5.125zm17.715 0v-4.772h-7.49v4.772h7.49zm-16.348-6.14h7.49v-1.35h-7.49v1.35zm4.429-8.857h7.49v-1.35h-7.49v1.35zm7.49 1.367h-7.49v4.774h7.49v-4.774zm-3.061 6.14v1.35h7.49v-1.35h-7.49zm-1.367 2.718h-7.491v4.772h7.49v-4.772zm-21.17 8.188h43.706v-2.049H3.147v2.048z"/><path d="M27.663 18.417h-5.326a.684.684 0 01-.683-.683v-2.687a.684.684 0 01.683-.683h5.326a.684.684 0 01.683.683v2.688a.683.683 0 01-.683.682zm-.684-2.686h-3.958v1.32h3.958v-1.32zm-7.474 2.686H14.18a.683.683 0 01-.684-.683v-2.687a.684.684 0 01.684-.683h5.325a.684.684 0 01.683.683v2.688a.683.683 0 01-.683.682zm-.684-2.686h-3.958v1.32h3.958v-1.32zm16.999 2.686h-5.325a.684.684 0 01-.683-.683v-2.687a.684.684 0 01.683-.683h5.325a.684.684 0 01.684.683v2.688a.683.683 0 01-.684.682zm-.683-2.686h-3.958v1.32h3.958v-1.32z"/></symbol><symbol viewBox="0 0 48 48" id="adv-item3" xmlns="http://www.w3.org/2000/svg"><path d="M27.626 5.447a.703.703 0 00-.568-.479l-1.677-.243-.75-1.52a.703.703 0 00-1.262 0l-.75 1.52-1.677.243a.703.703 0 00-.39 1.2l1.214 1.183-.287 1.67a.703.703 0 001.02.742L24 8.974l1.5.789a.702.702 0 001.02-.741l-.286-1.671 1.214-1.183a.703.703 0 00.178-.721zm-2.638 1.155a.703.703 0 00-.202.622l.108.631-.567-.298a.704.704 0 00-.654 0l-.567.298.108-.63a.703.703 0 00-.202-.623l-.458-.447.633-.092a.703.703 0 00.53-.385L24 5.104l.283.575c.103.207.3.35.53.384l.633.092-.458.447zm4.217 3.901a.703.703 0 00.614.417l1.694.067.905 1.433a.703.703 0 001.254-.131l.587-1.59 1.643-.418a.703.703 0 00.262-1.234l-1.33-1.05.11-1.691a.703.703 0 00-1.092-.63l-1.41.94-1.575-.627a.703.703 0 00-.937.844l.46 1.631-1.084 1.304a.703.703 0 00-.101.735zm2.639-2.064l-.174-.616.595.237c.215.085.458.06.65-.069l.533-.355-.042.638a.703.703 0 00.266.598l.503.397-.62.157a.703.703 0 00-.487.438l-.221.6-.342-.54a.703.703 0 00-.567-.328l-.64-.025.41-.492a.703.703 0 00.136-.64zm9.85 4.617l-1.692.11-1.05-1.33a.703.703 0 00-1.233.262l-.418 1.643-1.59.587a.703.703 0 00-.132 1.254l1.434.905.067 1.694a.703.703 0 001.152.513l1.303-1.084 1.632.46a.703.703 0 00.844-.937l-.628-1.575.942-1.41a.703.703 0 00-.63-1.092zm-1.754 2.68l.237.594-.616-.174a.704.704 0 00-.64.137l-.492.409-.026-.64a.703.703 0 00-.327-.567l-.541-.341.6-.222a.703.703 0 00.438-.487l.158-.62.396.503a.704.704 0 00.598.266l.639-.042-.356.533a.703.703 0 00-.068.65zm3.092 11.323l.243-1.678 1.52-.75a.703.703 0 000-1.261l-1.52-.75-.243-1.678a.703.703 0 00-1.2-.39l-1.183 1.214-1.67-.286a.703.703 0 00-.742 1.02l.789 1.5-.789 1.5a.703.703 0 00.741 1.02l1.671-.286 1.183 1.214a.703.703 0 001.2-.39zm-.71-2.775a.703.703 0 00-.385.529l-.092.634-.447-.459a.703.703 0 00-.622-.202l-.631.108.298-.566a.704.704 0 000-.655l-.298-.566.63.108a.703.703 0 00.623-.203l.447-.458.092.634a.703.703 0 00.385.529l.574.283-.574.284zm-.442 5.852a.704.704 0 00-.713-.206l-1.631.46-1.304-1.084a.703.703 0 00-1.152.513l-.067 1.694-1.433.905a.703.703 0 00.131 1.254l1.59.587.418 1.643a.703.703 0 001.234.262l1.05-1.33 1.691.11a.702.702 0 00.63-1.092l-.94-1.41.627-1.575a.703.703 0 00-.13-.73zm-2.155 3.27a.704.704 0 00-.598.266l-.396.503-.158-.62a.703.703 0 00-.438-.487l-.6-.222.541-.342a.703.703 0 00.327-.566l.026-.64.492.41a.703.703 0 00.64.135l.616-.173-.237.594a.703.703 0 00.069.651l.355.533-.639-.042zm-10.419 4.826l1.084 1.304-.46 1.631a.703.703 0 00.937.844l1.575-.628 1.41.942a.703.703 0 001.092-.63l-.11-1.692 1.33-1.05a.703.703 0 00-.261-1.234l-1.643-.417-.588-1.59a.703.703 0 00-1.254-.132l-.905 1.433-1.694.067a.703.703 0 00-.513 1.152zm2.632.171a.703.703 0 00.567-.327l.341-.541.222.6a.7.7 0 00.487.438l.62.158-.503.396a.703.703 0 00-.266.598l.042.64-.532-.356a.703.703 0 00-.651-.069l-.595.237.174-.616a.703.703 0 00-.137-.64l-.409-.492.64-.026zm-11.564 4.15c.083.255.303.44.568.479l1.677.243.75 1.52a.703.703 0 001.262 0l.75-1.52 1.677-.243a.703.703 0 00.39-1.2l-1.214-1.183.287-1.67a.703.703 0 00-1.02-.742L24 39.026l-1.5-.789a.703.703 0 00-1.02.741l.286 1.671-1.214 1.183a.703.703 0 00-.178.721zm2.638-1.155a.703.703 0 00.202-.622l-.108-.631.567.298c.205.107.45.107.654 0l.567-.298-.108.63a.7.7 0 00.202.623l.458.447-.633.092a.703.703 0 00-.53.385l-.283.574-.283-.575a.703.703 0 00-.53-.384l-.633-.092.458-.447zm-4.216-3.902a.703.703 0 00-.615-.416l-1.694-.067-.905-1.434a.703.703 0 00-1.254.132l-.587 1.59-1.643.418a.703.703 0 00-.262 1.233l1.33 1.05-.11 1.692a.703.703 0 001.092.63l1.41-.941 1.575.628a.703.703 0 00.937-.844l-.46-1.632 1.084-1.303a.703.703 0 00.102-.736zm-2.64 2.065l.174.616-.595-.237a.704.704 0 00-.65.068l-.533.356.042-.639a.703.703 0 00-.266-.598l-.503-.396.62-.158a.703.703 0 00.487-.438l.222-.6.341.541a.703.703 0 00.567.327l.64.026-.41.492a.703.703 0 00-.136.64zm-9.85-4.617l1.691-.11 1.05 1.33a.703.703 0 001.234-.262l.418-1.643 1.59-.587a.703.703 0 00.132-1.254l-1.434-.905-.067-1.694a.703.703 0 00-1.152-.513L8.465 30.39l-1.632-.46a.703.703 0 00-.844.937l.628 1.575-.942 1.41a.703.703 0 00.63 1.092zm1.754-2.68l-.237-.594.616.173a.703.703 0 00.64-.136l.492-.409.026.64a.703.703 0 00.327.567l.541.341-.6.222a.703.703 0 00-.438.486l-.158.62-.396-.502a.703.703 0 00-.598-.266l-.639.042.356-.533a.704.704 0 00.068-.65zM9.71 21.76a.703.703 0 00-.688-.28l-1.671.286-1.183-1.214a.703.703 0 00-1.2.39l-.243 1.677-1.52.75a.703.703 0 000 1.262l1.52.75.243 1.677a.703.703 0 001.2.39l1.183-1.214 1.67.287a.703.703 0 00.742-1.02L8.974 24l.789-1.501a.703.703 0 00-.053-.74zm-2.153 2.567l.298.567-.63-.108a.703.703 0 00-.623.202l-.447.458-.092-.633a.703.703 0 00-.385-.53L5.104 24l.575-.283a.703.703 0 00.384-.53l.092-.633.447.458a.703.703 0 00.623.203l.63-.109-.297.567a.703.703 0 000 .654zm2.723-12.229a.703.703 0 00-1.233-.263l-1.05 1.331-1.691-.11a.702.702 0 00-.63 1.092l.94 1.41-.627 1.575a.703.703 0 00.844.937l1.632-.46 1.303 1.084a.702.702 0 001.152-.513l.067-1.694 1.434-.905a.703.703 0 00-.132-1.254l-1.59-.587-.418-1.643zm-.356 3.397a.703.703 0 00-.327.567l-.026.64-.492-.41a.703.703 0 00-.64-.136l-.616.174.237-.595a.703.703 0 00-.069-.65l-.355-.533.639.042a.702.702 0 00.598-.266l.396-.503.158.62a.7.7 0 00.438.487l.6.222-.541.341zm1.659-5.749c.056.262.255.47.515.535l1.643.418.587 1.59a.703.703 0 001.254.132l.905-1.433 1.694-.067a.703.703 0 00.513-1.153L17.61 8.465l.46-1.632a.703.703 0 00-.937-.844l-1.575.628-1.41-.941a.703.703 0 00-1.092.63l.11 1.692-1.33 1.05a.703.703 0 00-.253.698zm2.745-.873a.703.703 0 00.266-.598l-.042-.639.533.356a.703.703 0 00.65.068l.595-.237-.173.616a.703.703 0 00.136.64l.409.493-.64.025a.703.703 0 00-.567.327l-.341.542-.222-.601a.703.703 0 00-.486-.438l-.62-.158.502-.396z"/><path d="M40.97 7.03A23.844 23.844 0 0024 0 23.967 23.967 0 008.086 6.037a.703.703 0 00.932 1.052A22.563 22.563 0 0124 1.406c12.458 0 22.594 10.136 22.594 22.594 0 12.458-10.136 22.594-22.594 22.594C11.542 46.594 1.406 36.458 1.406 24A22.562 22.562 0 017.09 9.018a.703.703 0 00-1.052-.932A23.967 23.967 0 000 24c0 6.41 2.496 12.438 7.03 16.97A23.844 23.844 0 0024 48c6.41 0 12.438-2.496 16.97-7.03A23.844 23.844 0 0048 24c0-6.41-2.496-12.438-7.03-16.97z"/></symbol><symbol viewBox="0 0 12 8" id="arrow-down" xmlns="http://www.w3.org/2000/svg"><path d="M11 1L6 6 1 1"/></symbol><symbol viewBox="0 0 512.076 512.076" id="call" xmlns="http://www.w3.org/2000/svg"><path d="M498.639 395.039l-103.646-69.12c-13.153-8.701-30.784-5.838-40.508 6.579l-30.191 38.818a12.903 12.903 0 01-16.546 3.482l-5.743-3.166c-19.038-10.377-42.726-23.296-90.453-71.04s-60.672-71.45-71.049-90.453l-3.149-5.743a12.92 12.92 0 013.413-16.606l38.792-30.182c12.412-9.725 15.279-27.351 6.588-40.508l-69.12-103.646C108.12.056 90.25-3.966 76.461 4.323L33.12 30.358A61.136 61.136 0 005.242 66.539c-15.607 56.866-3.866 155.008 140.706 299.597 115.004 114.995 200.619 145.92 259.465 145.92a151.181 151.181 0 0040.107-5.239 61.079 61.079 0 0036.181-27.878l26.061-43.315c8.301-13.792 4.281-31.673-9.123-40.585zm-5.581 31.829l-26.001 43.341a44.103 44.103 0 01-26.027 20.173c-52.497 14.413-144.213 2.475-283.008-136.32S7.29 123.559 21.703 71.054a44.17 44.17 0 0120.198-26.061l43.341-26.001c5.983-3.6 13.739-1.855 17.604 3.959l37.547 56.371 31.514 47.266c3.774 5.707 2.534 13.356-2.85 17.579l-38.801 30.182c-11.808 9.029-15.18 25.366-7.91 38.332l3.081 5.598c10.906 20.002 24.465 44.885 73.967 94.379 49.502 49.493 74.377 63.053 94.37 73.958l5.606 3.089c12.965 7.269 29.303 3.898 38.332-7.91l30.182-38.801c4.224-5.381 11.87-6.62 17.579-2.85l103.637 69.12c5.818 3.862 7.563 11.622 3.958 17.604zM290.161 85.39c80.081.089 144.977 64.986 145.067 145.067 0 4.713 3.82 8.533 8.533 8.533s8.533-3.82 8.533-8.533c-.099-89.503-72.63-162.035-162.133-162.133-4.713 0-8.533 3.82-8.533 8.533s3.82 8.533 8.533 8.533z"/><path d="M290.161 136.59c51.816.061 93.806 42.051 93.867 93.867a8.533 8.533 0 0017.066 0c-.071-61.238-49.696-110.863-110.933-110.933-4.713 0-8.533 3.82-8.533 8.533s3.82 8.533 8.533 8.533z"/><path d="M290.161 187.79c23.552.028 42.638 19.114 42.667 42.667a8.533 8.533 0 0017.066 0c-.038-32.974-26.759-59.696-59.733-59.733-4.713 0-8.533 3.82-8.533 8.533s3.82 8.533 8.533 8.533z"/></symbol><symbol viewBox="0 0 50 50" id="categories-item1" xmlns="http://www.w3.org/2000/svg"><path d="M45.242 7.48a.733.733 0 00-.95-1.115l-1.582 1.35a.733.733 0 00.951 1.113l1.581-1.349zm-3.193 15.143v.901a.732.732 0 101.464 0v-.901a.732.732 0 10-1.464 0zM5.019 37.752a1.955 1.955 0 102.767 0 1.956 1.956 0 00-2.767 0zm1.73 1.73a.491.491 0 11-.695-.694.491.491 0 01.696.695zm6.777-4.704a1.955 1.955 0 000-2.767 1.955 1.955 0 100 2.767zm-1.73-1.731a.491.491 0 11.697.695.491.491 0 01-.698-.695zM8.44 35.29a.732.732 0 000 1.035l.772.772a.73.73 0 001.036 0 .732.732 0 000-1.036l-.772-.772a.733.733 0 00-1.036 0zm15.49-23.904h3.41a.732.732 0 100-1.465h-3.41a.732.732 0 100 1.465z"/><path d="M49.267 48.535H37.093v-2.931c0-.76-.618-1.377-1.377-1.377H34.32V41.06c0-.63-.512-1.142-1.142-1.142h-.919l-3.4-26.276h1.282c.923 0 1.674-.75 1.674-1.674v-2.84l7.824.84v21.717a.732.732 0 001.1.634c2.165-1.254 3.906-3.23 5.174-5.876a.732.732 0 10-1.32-.633c-.911 1.9-2.082 3.409-3.49 4.501V6.788l4.719-4.026c1.443 8.36 1.375 15.216-.203 20.386a.732.732 0 101.4.427c1.673-5.478 1.73-12.707.172-21.486-.076-.43-.38-.79-.791-.937a1.225 1.225 0 00-1.206.22l-5.03 4.291-21.33-4.159a.732.732 0 10-.28 1.438L39.64 7.053v1.441L5.167 4.793l.174-.317a5.788 5.788 0 016.2-2.902l4.086.797a.732.732 0 10.28-1.438L11.821.136A7.248 7.248 0 004.057 3.77l-.703 1.28a.732.732 0 00.563 1.082l2.345.251v1.37c0 .896.729 1.625 1.625 1.625h.775v21.701L5.64 34.1a.732.732 0 101.036 1.036l3.861-3.861a2.633 2.633 0 013.725 0 2.637 2.637 0 010 3.725l-6.111 6.11a2.637 2.637 0 01-3.725 0 2.637 2.637 0 010-3.725l.18-.18A.732.732 0 103.57 36.17l-.18.18a4.104 4.104 0 00.45 6.184l-1.952 6H.734a.732.732 0 100 1.465h48.534a.732.732 0 100-1.465zm-16.41-4.308h-14.44v-2.844h14.44v2.844zm-2.631-8.614l-7.506-2.912 6.753-2.907.753 5.82zm-1.04-8.028l-5.811-2.806 5.086-2.805.726 5.61zm-1.77-13.68l.72 5.559-4.07-2.64 3.35-2.918zm-1.978-.219l-1.75 1.524.197-1.524h1.553zm-2.122 4.398l4.212 2.732-4.917 2.712.705-5.444zm-1.01 7.806l5.907 2.852-6.647 2.86.74-5.712zm-1.014 7.829l7.954 3.086-5.717 3.105c-.005.002-.01.006-.014.009H20.49l.802-6.2zm5.29 6.2l3.925-2.132.276 2.132h-4.2zm3.769-27.95a.21.21 0 01-.21.208h-9.01a.21.21 0 01-.209-.209v-4.01l9.429 1.012v2.998zM7.727 7.752V6.54l3.335.358v.854a.16.16 0 01-.16.16H7.886a.16.16 0 01-.16-.16zm7.572 28.283a4.1 4.1 0 00-5.172-6.31V9.378h.775c.896 0 1.624-.73 1.624-1.625v-.697l6.932.744v4.168c0 .923.75 1.674 1.674 1.674h1.282l-3.4 26.277h-.92c-.63 0-1.142.512-1.142 1.141v3.167h-1.395c-.759 0-1.376.617-1.376 1.377v2.931h-2.592l-2.157-6.632 5.867-5.867zm-11.871 12.5l1.739-5.346a4.12 4.12 0 003.04-.318l1.842 5.663H3.428zm12.217 0v-2.844h19.983v2.843H15.645z"/></symbol><symbol viewBox="0 0 55 55" id="categories-item2" xmlns="http://www.w3.org/2000/svg"><path d="M45.708 25.779l3.935-6.185c.338.11.695.172 1.06.172a3.44 3.44 0 003.438-3.438 3.44 3.44 0 00-3.438-3.437 3.44 3.44 0 00-2.514 5.787l-3.973 6.244h-11.09L25.963 13.78l4.577-6.293a3.4 3.4 0 001.257.247 3.44 3.44 0 003.437-3.437A3.44 3.44 0 0031.797.859a3.44 3.44 0 00-3.438 3.438c0 .812.29 1.586.787 2.185l-4.662 6.409h-8.278a3.433 3.433 0 00-3.315-2.579 3.44 3.44 0 00-3.438 3.438c0 .882.333 1.71.915 2.334l-3.665 5.702a4.255 4.255 0 00-1.547-.302A4.302 4.302 0 00.86 25.781a4.302 4.302 0 004.297 4.297c.536 0 1.057-.11 1.548-.3l5.146 8.004-4.577 6.294a3.4 3.4 0 00-1.257-.248 3.44 3.44 0 00-3.438 3.438 3.44 3.44 0 003.438 3.437 3.44 3.44 0 003.437-3.437c0-.813-.29-1.587-.786-2.186l4.661-6.408h11.125l6.179 9.611a2.57 2.57 0 00-.554 1.56 2.581 2.581 0 002.578 2.579 2.575 2.575 0 002.42-1.719h5.401a4.304 4.304 0 004.21 3.438 4.302 4.302 0 004.297-4.297c0-1.178-.48-2.272-1.302-3.07l5.76-8.962-7.734-12.033zm4.995-11.17a1.72 1.72 0 11-.925 3.167 1.705 1.705 0 01-.794-1.448c0-.948.771-1.719 1.72-1.719zM31.797 2.58c.948 0 1.719.77 1.719 1.718a1.72 1.72 0 01-1.72 1.719c-.369 0-.712-.113-1.016-.34a1.689 1.689 0 01-.702-1.38 1.72 1.72 0 011.719-1.718zm-15.59 12.03h8.246l7.181 11.172-7.181 11.172H13.36L8.15 28.85a4.261 4.261 0 000-6.137l3.668-5.706a3.38 3.38 0 001.073.181 3.433 3.433 0 003.315-2.578zm-3.316-2.578a1.72 1.72 0 011.718 1.719 1.72 1.72 0 01-1.718 1.719 1.7 1.7 0 01-.93-.278 1.7 1.7 0 01-.79-1.441c0-.948.772-1.719 1.72-1.719zM2.578 25.781a2.581 2.581 0 012.578-2.578c.494 0 .975.142 1.393.413a2.561 2.561 0 011.185 2.165c0 .88-.443 1.69-1.19 2.167a2.53 2.53 0 01-1.388.411 2.581 2.581 0 01-2.578-2.578zm3.438 23.203a1.72 1.72 0 01-1.72-1.718c0-.948.772-1.72 1.72-1.72.37 0 .712.114 1.016.341.44.312.702.827.702 1.379a1.72 1.72 0 01-1.718 1.718zm26.64 1.72a.86.86 0 01-.86-.86.87.87 0 01.413-.732.86.86 0 11.447 1.591zm7.821-1.72h-5.4a2.575 2.575 0 00-2.42-1.718c-.204 0-.4.029-.59.073l-6.123-9.526 7.182-11.172h11.092L51.4 37.813l-5.166 8.035a4.255 4.255 0 00-1.547-.301 4.305 4.305 0 00-4.21 3.437zm4.21 3.438a2.581 2.581 0 01-2.578-2.578 2.581 2.581 0 012.578-2.578c.495 0 .975.141 1.394.413a2.561 2.561 0 011.185 2.165 2.581 2.581 0 01-2.578 2.578z"/><path d="M12.89 21.484h6.876v1.72H12.89v-1.72zm8.594 0h3.438v1.72h-3.438v-1.72zm-8.594 3.438h12.032v1.719H12.89v-1.72zm10.313 3.438h1.719v1.718h-1.719V28.36zm-3.437 0h1.718v1.718h-1.718V28.36zm-6.876 0h5.157v1.718H12.89V28.36zm19.766 5.156h6.875v1.718h-6.875v-1.718zm8.594 0h3.438v1.718H41.25v-1.718zm-8.594 3.437h12.032v1.719H32.656v-1.719zm10.313 3.437h1.718v1.72H42.97v-1.72zm-3.438 0h1.719v1.72h-1.719v-1.72zm-6.875 0h5.157v1.72h-5.157v-1.72z"/></symbol><symbol viewBox="0 0 42 50" id="categories-item3" xmlns="http://www.w3.org/2000/svg"><path d="M39.112 14.626a2.538 2.538 0 002.536-2.536 2.538 2.538 0 00-2.536-2.535h-.489V5.07h.49a2.538 2.538 0 002.535-2.535A2.538 2.538 0 0039.112 0H2.887A2.538 2.538 0 00.352 2.535 2.538 2.538 0 002.887 5.07h.49v4.485h-.49a2.538 2.538 0 00-2.535 2.536 2.538 2.538 0 002.535 2.535h.49v20.748h-.49A2.538 2.538 0 00.352 37.91a2.538 2.538 0 002.535 2.535h.49v4.485h-.49a2.538 2.538 0 00-2.535 2.535A2.538 2.538 0 002.887 50h36.225a2.538 2.538 0 002.536-2.535 2.538 2.538 0 00-2.536-2.535h-.489v-4.485h.49a2.538 2.538 0 002.535-2.535 2.538 2.538 0 00-2.536-2.536h-.489V14.626h.49zM4.844 5.07h4.893a.734.734 0 000-1.467h-6.85a1.069 1.069 0 010-2.135h36.225c.589 0 1.068.479 1.068 1.067a1.07 1.07 0 01-1.068 1.068h-26.44a.734.734 0 100 1.467h24.484v4.485H4.844V5.07zM40.18 47.465c0 .588-.479 1.067-1.068 1.067H2.887a1.069 1.069 0 010-2.135h36.225c.589 0 1.068.48 1.068 1.068zm0-9.555c0 .588-.479 1.067-1.068 1.067H15.776a.734.734 0 100 1.468h21.38v4.485H4.844v-4.485h7.997a.734.734 0 000-1.468H2.887a1.069 1.069 0 010-2.135h36.225a1.07 1.07 0 011.068 1.068zm-3.024-2.536H4.844V14.626h24.887a.734.734 0 100-1.468H2.887a1.069 1.069 0 010-2.135h36.225a1.068 1.068 0 010 2.135h-6.446a.734.734 0 100 1.468h4.49v20.748z"/><path d="M19.08 24.51c0-.684.368-1.32.96-1.661a.738.738 0 00.269-1.003l-2.338-4.05a.735.735 0 00-1.003-.268 8.091 8.091 0 00-4.03 6.982c0 .405.33.733.735.733h4.674a.734.734 0 00.734-.733zm-4.632-.734a6.63 6.63 0 012.64-4.574l1.623 2.812a3.4 3.4 0 00-1.017 1.762h-3.246zm10.584-6.248a.733.733 0 00-1.004.268l-2.337 4.05a.738.738 0 00.27 1.003c.59.341.958.977.958 1.66 0 .406.329.735.734.735h4.674a.734.734 0 00.734-.734 8.092 8.092 0 00-4.03-6.982zm-.726 6.248a3.402 3.402 0 00-1.017-1.762l1.623-2.812a6.63 6.63 0 012.64 4.574h-3.246zm-1.345 2.664a.738.738 0 00-1.005-.268 1.902 1.902 0 01-1.914 0 .738.738 0 00-1.004.268L16.7 30.49a.734.734 0 00.268 1.002A8.055 8.055 0 0021 32.57a8.06 8.06 0 004.031-1.08.734.734 0 00.268-1.001l-2.338-4.05zM21 31.103a6.606 6.606 0 01-2.642-.55l1.624-2.813c.655.207 1.38.207 2.035 0l1.624 2.813a6.606 6.606 0 01-2.641.55z"/></symbol><symbol viewBox="0 0 50 50" id="categories-item4" xmlns="http://www.w3.org/2000/svg"><path d="M47.715 28.924L36.722 11.227a.832.832 0 00-1.415-.002l-11.02 17.681c-2.69 4.316-2.822 9.547-.354 13.994C26.4 47.345 30.91 50 35.996 50c5.08 0 9.588-2.651 12.057-7.092 2.47-4.44 2.343-9.668-.338-13.984zm-12.538 7.773a1.667 1.667 0 01-1.663 1.636 1.669 1.669 0 01-1.667-1.666c0-.92.748-1.667 1.667-1.667h1.665l-.002 1.697zm.003-3.364h-1.666a1.669 1.669 0 01-1.667-1.666c0-.92.748-1.667 1.667-1.667.918 0 1.666.748 1.666 1.667v1.666zM46.597 42.1c-2.035 3.659-5.644 5.936-9.767 6.207l.002-1.64h2.515a4.171 4.171 0 004.167-4.166.833.833 0 00-.834-.833h-3.333c-.946 0-1.81.329-2.51.862l.003-2.996c.494.29 1.061.467 1.674.467a3.337 3.337 0 003.333-3.333c0-1-.452-1.889-1.152-2.5.7-.612 1.152-1.5 1.152-2.5a3.337 3.337 0 00-3.333-3.334c-1 0-1.889.452-2.5 1.152a3.312 3.312 0 00-2.5-1.152 3.337 3.337 0 00-3.334 3.334c0 1 .452 1.888 1.152 2.5-.7.611-1.152 1.5-1.152 2.5A3.337 3.337 0 0033.514 40a3.29 3.29 0 001.66-.46l-.01 8.766c-4.128-.27-7.74-2.551-9.774-6.215-2.17-3.91-2.053-8.509.312-12.303l10.31-16.544L46.3 29.803c2.358 3.795 2.468 8.391.298 12.296zM36.989 45a2.505 2.505 0 012.358-1.666h2.358A2.505 2.505 0 0139.347 45h-2.358zm1.525-10a1.67 1.67 0 011.666 1.668c0 .918-.748 1.666-1.666 1.666a1.669 1.669 0 01-1.667-1.666V35h1.667zm-1.667-1.666v-1.666c0-.92.748-1.667 1.667-1.667.918 0 1.666.748 1.666 1.667 0 .918-.748 1.666-1.666 1.666h-1.667zm0-33.334h-9.925a.833.833 0 00-.59.244l-3.577 3.578-.244-.244a.833.833 0 00-1.178 0l-3.09 3.089H13.59a.833.833 0 00-.59.244l-2.5 2.5a.833.833 0 000 1.178l1.078 1.078L3 20.244a.833.833 0 000 1.179l.234.233A12.116 12.116 0 00.18 29.714v19.453c0 .46.373.833.834.833h3.333c.46 0 .833-.373.833-.833V30.255a7.7 7.7 0 011.764-4.881l5.977 6.045a.833.833 0 00.59.248h.003a.832.832 0 00.589-.245l9.167-9.166 5-5a.834.834 0 00.005-1.174l-4.346-4.411 2.749-2.748a.833.833 0 000-1.179l-.244-.244 2.5-2.5h7.913c.46 0 .834-.373.834-.833V.833A.833.833 0 0036.846 0zM3.514 30.256v18.077H1.847V29.714c0-2.542.893-4.947 2.531-6.856l1.377 1.337a9.375 9.375 0 00-2.241 6.06zm10.003-.604l-5.42-5.482 1.213-1.213 3.522 5.021a.83.83 0 00.61.352.798.798 0 00.661-.24l6.911-6.912.488.489-7.985 7.985zm2.173-11.197a.833.833 0 00-1.158.298l-2.755 4.82-1.271-1.812 5.58-5.58 3.762 3.806-.626.626-3.532-2.158zm2.32 3.371l-4.384 4.383-.79-1.127 2.717-4.757 2.456 1.501zm8.496-5.163l-3.822 3.822-6.003-6.07a.775.775 0 00-.592-.248.833.833 0 00-.59.244l-6.666 6.667-1.911 1.91-2.155-2.155 8.578-8.577a.833.833 0 000-1.179L12.267 10l1.667-1.667h4.31l8.262 8.33zm9.508-13.33h-7.425a.833.833 0 00-.59.244l-3.333 3.334a.833.833 0 000 1.178l.244.244-2.155 2.155L19.767 7.5l2.155-2.155.244.244a.833.833 0 001.179 0l3.922-3.922h8.747v1.666z"/><path d="M27.62 32.808l-1.547-.617c-.073.184-1.785 4.555.029 8.182l1.49-.746c-1.474-2.949.014-6.78.029-6.819zm1.582 9.108l-1.19 1.168c1.383 1.41 2.684 1.855 2.738 1.874l.527-1.582c-.01-.003-.988-.35-2.075-1.46z"/></symbol><symbol viewBox="0 0 50 50" id="categories-item5" xmlns="http://www.w3.org/2000/svg"><g clip-path="url(#jclip0)"><path d="M23.557 25.111a.976.976 0 101.38 1.381.976.976 0 10-1.38-1.38z"/><path d="M39.085 2.906c-1.676 1.297-2.133 1.966-8.076 7.848l-3.563-.58 1.635-1.636a2.927 2.927 0 000-4.143 2.928 2.928 0 00-4.143 0L20.32 9.013 4.169 6.383a3.295 3.295 0 00-2.461 5.92L17.802 23.96l-3.013 3.014c-1.033 1.032-2.12 2.453-3.236 4.226l-7.506-2.207a3.157 3.157 0 00-2.687 5.624l6.153 4.259a78.987 78.987 0 00-1.752 4.152.977.977 0 001.26 1.26c.078-.03 1.788-.681 4.152-1.753l4.26 6.154a3.157 3.157 0 005.623-2.687l-2.207-7.506c1.774-1.117 3.194-2.204 4.226-3.236l3.014-3.014 11.655 16.095a3.294 3.294 0 005.921-2.462l-2.63-16.15 4.618-4.617a2.929 2.929 0 000-4.144 2.927 2.927 0 00-4.142 0l-1.636 1.635-.58-3.563c5.888-5.95 6.546-6.395 7.844-8.071a.083.083 0 00.005-.007c3.013-3.903 3.718-7.846 1.753-9.81-1.964-1.964-5.907-1.26-9.812 1.754zm-12.767 2.87A.976.976 0 1127.7 7.158l-2.63 2.63-2.375-.387 3.623-3.623zM2.854 10.723a1.34 1.34 0 011.003-2.41l25.451 4.143-10.106 10.106-16.349-11.84zm-.548 20.449a1.203 1.203 0 011.19-.304l7.021 2.064a66.456 66.456 0 00-2.165 4.15l-5.879-4.07a1.204 1.204 0 01-.167-1.84zM18.88 47.743a1.204 1.204 0 01-1.84-.166l-4.07-5.88a66.926 66.926 0 004.149-2.164l2.064 7.02c.124.422.008.879-.303 1.19zM42.892 22.35a.977.977 0 011.38 1.382l-3.623 3.623-.387-2.376 2.63-2.63zm-1.155 23.843a1.342 1.342 0 01-2.41 1.004l-11.84-16.348 10.107-10.106 4.143 25.45zM21.694 33.88c-1.074 1.075-2.647 2.235-4.674 3.45-2.635 1.578-5.754 3.072-8.567 4.267 1.227-2.89 2.75-6.058 4.362-8.724 1.18-1.95 2.308-3.47 3.355-4.517C40.025 4.557 38.612 5.785 40.06 4.627c1.605-.103 3.02.374 4.003 1.358.984.984 1.462 2.399 1.36 4.004-1.161 1.451.052.052-23.729 23.89zm25.4-26.456a6.515 6.515 0 00-1.65-2.819 6.519 6.519 0 00-2.818-1.648c1.414-.717 3.794-1.52 4.89-.424.866.866.651 2.773-.423 4.891z"/><path d="M29.08 19.587l-2.76 2.761a.977.977 0 101.38 1.382l2.762-2.762a.976.976 0 10-1.381-1.381zm5.525-5.524l-2.762 2.762a.977.977 0 001.38 1.381l2.763-2.762a.977.977 0 00-1.38-1.382z"/></g><defs><clipPath id="jclip0"><path d="M0 0h50v49.902H0z"/></clipPath></defs></symbol><symbol viewBox="0 0 34 50" id="categories-item6" xmlns="http://www.w3.org/2000/svg"><path d="M32.234 36.845V26.263a.732.732 0 10-1.465 0v10.456H15.732a.732.732 0 100 1.465h15.771a.733.733 0 010 1.464H2.498a.733.733 0 010-1.464h9.815a.732.732 0 100-1.465H3.23V20.605h27.54v2.24a.732.732 0 101.464 0V20.48a2.2 2.2 0 001.465-2.072 2.2 2.2 0 00-1.465-2.071c.17-3.07-1.961-5.706-4.98-6.046V5.37h.586a2.689 2.689 0 002.685-2.685A2.689 2.689 0 0027.84 0H6.16a2.689 2.689 0 00-2.685 2.686A2.689 2.689 0 006.16 5.37h.586v4.92c-2.984.332-5.19 3.007-4.98 6.046A2.2 2.2 0 00.3 18.408a2.2 2.2 0 001.465 2.072v16.365A2.2 2.2 0 00.3 38.916a2.2 2.2 0 001.465 2.071c-.272 2.599 1.547 5.073 3.906 5.817v.999A2.2 2.2 0 007.869 50h18.262a2.2 2.2 0 002.197-2.197v-1c2.408-.773 4.101-3.168 3.906-5.816a2.2 2.2 0 001.465-2.071 2.2 2.2 0 00-1.465-2.071zM6.16 3.906a1.221 1.221 0 010-2.441h21.68a1.221 1.221 0 010 2.441H6.16zm19.63 1.465v4.883h-2.93V5.37h2.93zM19.001 7.13h-4.004a.732.732 0 100 1.465h1.27v1.66h-3.663V5.37h8.79v4.883h-3.663v-1.66h1.27a.732.732 0 100-1.465zm-7.86-1.76v4.883H8.21V5.37h2.93zM7.38 11.72h19.238c2.387-.01 4.346 2.082 4.15 4.492H3.23c-.16-2.416 1.721-4.494 4.15-4.492zm-4.883 5.957h29.004a.733.733 0 010 1.465H2.498a.733.733 0 010-1.465zm24.365 30.127a.733.733 0 01-.732.732H7.869a.733.733 0 01-.732-.732v-.739c.417.018 19.3.018 19.726 0v.739zm-.244-2.197H7.381c-2.45 0-4.302-2.08-4.15-4.493h27.538c.1 2.379-1.676 4.503-4.15 4.492zM10.302 28.662A6.706 6.706 0 0017 35.36a6.706 6.706 0 006.698-6.698A6.705 6.705 0 0017 21.964a6.705 6.705 0 00-6.698 6.698zm11.931 0A5.239 5.239 0 0117 33.895a5.239 5.239 0 01-5.233-5.233A5.239 5.239 0 0117 23.43a5.239 5.239 0 015.233 5.233zm-6.024-2.64c-1.18 1.432-1.778 2.537-1.778 3.283 0 1.395 1.152 2.53 2.569 2.53s2.57-1.135 2.57-2.53c0-.746-.599-1.85-1.779-3.282a1.022 1.022 0 00-1.582 0zm1.896 3.283c0 .587-.496 1.066-1.105 1.066-.61 0-1.104-.478-1.104-1.066 0-.213.3-.883 1.104-1.925.803 1.042 1.105 1.712 1.105 1.925z"/></symbol><symbol viewBox="0 0 492 492" id="close" xmlns="http://www.w3.org/2000/svg"><path d="M300.188 246L484.14 62.04c5.06-5.064 7.852-11.82 7.86-19.024 0-7.208-2.792-13.972-7.86-19.028L468.02 7.872C462.952 2.796 456.196.016 448.984.016c-7.2 0-13.956 2.78-19.024 7.856L246.008 191.82 62.048 7.872C56.988 2.796 50.228.016 43.02.016c-7.2 0-13.96 2.78-19.02 7.856L7.872 23.988c-10.496 10.496-10.496 27.568 0 38.052L191.828 246 7.872 429.952C2.808 435.024.02 441.78.02 448.984c0 7.204 2.788 13.96 7.852 19.028l16.124 16.116c5.06 5.072 11.824 7.856 19.02 7.856 7.208 0 13.968-2.784 19.028-7.856l183.96-183.952 183.952 183.952c5.068 5.072 11.824 7.856 19.024 7.856h.008c7.204 0 13.96-2.784 19.028-7.856l16.12-16.116c5.06-5.064 7.852-11.824 7.852-19.028 0-7.204-2.792-13.96-7.852-19.028L300.188 246z"/></symbol><symbol viewBox="0 0 51 66" id="design-line1" xmlns="http://www.w3.org/2000/svg"><path d="M1 8.316c29.053 4.49 47.574 24.653 47.574 50.007"/></symbol><symbol viewBox="0 0 19 14" id="email" xmlns="http://www.w3.org/2000/svg"><path d="M16.481.825H2.28A1.64 1.64 0 00.64 2.464v9.832a1.64 1.64 0 001.64 1.64h14.2a1.64 1.64 0 001.639-1.64V2.464A1.64 1.64 0 0016.48.825zm0 1.093c.074 0 .145.015.21.042L9.38 8.296 2.07 1.96a.544.544 0 01.209-.042H16.48zm0 10.925H2.28a.547.547 0 01-.547-.547V3.114l7.29 6.318a.546.546 0 00.716 0l7.29-6.318v9.183a.547.547 0 01-.547.546z"/></symbol><symbol viewBox="0 0 14 18" id="location" xmlns="http://www.w3.org/2000/svg"><path d="M.847 4.98C1.47 2.967 3.089 1.335 5.072.72c2.11-.653 4.312-.298 6.038.975a6.766 6.766 0 011.985 2.326c.488.942.745 2.003.745 3.068 0 1.452-.46 2.833-1.329 3.992l-5.33 6.799-5.324-6.79-.006-.01C.55 9.347.184 7.124.847 4.98zm1.82 5.482l4.514 5.758 4.514-5.758a5.587 5.587 0 001.12-3.373 5.7 5.7 0 00-2.313-4.57c-1.461-1.077-3.33-1.376-5.127-.82-1.665.516-3.025 1.89-3.55 3.584-.564 1.823-.257 3.71.842 5.179z"/><path d="M7.18 3.503a3.59 3.59 0 013.587 3.586 3.59 3.59 0 01-3.586 3.585A3.59 3.59 0 013.595 7.09a3.59 3.59 0 013.586-3.586zm0 6.147a2.564 2.564 0 002.562-2.561 2.564 2.564 0 00-2.561-2.562A2.564 2.564 0 004.62 7.09a2.564 2.564 0 002.56 2.56z"/></symbol><symbol viewBox="0 0 18 18" id="phone" xmlns="http://www.w3.org/2000/svg"><path d="M14.985 3.015A8.054 8.054 0 009.252.64H9.25a8.069 8.069 0 00-3.103.617 8.07 8.07 0 00-2.63 1.758 8.055 8.055 0 00-2.374 5.733c0 1.292.311 2.575.902 3.719L.683 16.361a.745.745 0 00.178.778.745.745 0 00.779.178l3.893-1.363a8.132 8.132 0 003.719.903 8.056 8.056 0 005.733-2.375 8.055 8.055 0 002.375-5.734 8.055 8.055 0 00-2.375-5.733zm-.693 10.773a7.08 7.08 0 01-5.04 2.088 7.146 7.146 0 01-3.346-.833.755.755 0 00-.603-.047l-3.537 1.238 1.238-3.537a.756.756 0 00-.047-.603 7.146 7.146 0 01-.833-3.346c0-1.903.742-3.693 2.088-5.04a7.082 7.082 0 015.04-2.087 7.08 7.08 0 015.04 2.087 7.08 7.08 0 012.088 5.04 7.08 7.08 0 01-2.088 5.04z"/><path d="M12.265 9.473a.958.958 0 00-1.353 0l-.408.408A5.938 5.938 0 018.12 7.496l.408-.408a.958.958 0 000-1.353l-1.099-1.1a.958.958 0 00-1.353 0l-.88.88c-.503.504-.528 1.37-.07 2.439.398.928 1.126 1.948 2.05 2.872.923.924 1.943 1.652 2.871 2.05.508.217.97.325 1.37.325.44 0 .805-.132 1.069-.397l.88-.88v.001a.95.95 0 00.28-.676.95.95 0 00-.28-.677l-1.1-1.1zm-.473 2.638c-.144.144-.586.194-1.36-.137-.815-.35-1.726-1.004-2.564-1.842-.838-.838-1.492-1.748-1.842-2.564-.331-.773-.28-1.216-.137-1.36l.863-.862L7.817 6.41l-.51.511a.748.748 0 00-.14.872 6.918 6.918 0 003.04 3.038c.29.148.64.093.871-.138l.51-.511 1.066 1.066-.862.862z"/></symbol><symbol viewBox="0 0 16 16" id="search" xmlns="http://www.w3.org/2000/svg"><path d="M15.902 14.96l-4.647-4.648a6.301 6.301 0 001.412-3.979A6.34 6.34 0 006.333 0 6.34 6.34 0 000 6.333a6.34 6.34 0 006.333 6.334c1.507 0 2.89-.531 3.979-1.412l4.648 4.647c.13.13.34.13.471 0l.471-.47a.333.333 0 000-.472zm-9.569-3.627c-2.757 0-5-2.242-5-5 0-2.757 2.243-5 5-5 2.758 0 5 2.243 5 5 0 2.758-2.242 5-5 5z"/></symbol></svg>